<svg width="158" height="46" viewBox="0 0 158 46" fill="none" xmlns="http://www.w3.org/2000/svg">
<path d="M28.709 35.8516C27.0814 36.6165 25.234 37.2269 23.167 37.6826C21.0999 38.1221 19.1143 38.3418 17.21 38.3418C11.8714 38.3418 7.79427 36.7874 4.97852 33.6787C2.16276 30.5537 0.754883 26.0615 0.754883 20.2021C0.754883 16.4749 1.4222 13.2604 2.75684 10.5586C4.09147 7.85677 6.01204 5.78971 8.51855 4.35742C11.0413 2.92513 14.0524 2.20898 17.5518 2.20898C19.391 2.20898 21.2464 2.46126 23.1182 2.96582C25.0062 3.4541 26.7884 4.17839 28.4648 5.13867L26.4629 9.04492C24.8678 8.2474 23.3542 7.66146 21.9219 7.28711C20.4896 6.89648 19.0329 6.70117 17.5518 6.70117C13.792 6.70117 10.8867 7.87305 8.83594 10.2168C6.78516 12.5443 5.75977 15.8727 5.75977 20.2021C5.75977 24.5641 6.76888 27.9333 8.78711 30.3096C10.8053 32.6696 13.6781 33.8496 17.4053 33.8496C19.5374 33.8496 21.7103 33.516 23.9238 32.8486V20.3975H28.709V35.8516ZM36.1064 2.59961H40.916V38H36.1064V2.59961ZM61.668 2.59961C67.1693 2.59961 71.3766 4.11328 74.29 7.14062C77.2197 10.1517 78.6846 14.5055 78.6846 20.2021C78.6846 25.8988 77.2035 30.2933 74.2412 33.3857C71.2952 36.4619 67.1042 38 61.668 38H50.2178V2.59961H61.668ZM61.668 33.752C65.5742 33.752 68.5527 32.6045 70.6035 30.3096C72.6543 27.9984 73.6797 24.6292 73.6797 20.2021C73.6797 15.8402 72.6624 12.528 70.6279 10.2656C68.5934 7.98698 65.6068 6.84766 61.668 6.84766H55.0273V33.752H61.668ZM100.267 2.20898C102.073 2.20898 103.864 2.46126 105.638 2.96582C107.428 3.4541 109.104 4.17839 110.667 5.13867L108.665 9.04492C107.135 8.21484 105.695 7.62077 104.344 7.2627C102.993 6.88835 101.634 6.70117 100.267 6.70117C96.5068 6.70117 93.6016 7.87305 91.5508 10.2168C89.5 12.5443 88.4746 15.8727 88.4746 20.2021C88.4746 24.5641 89.4837 27.9333 91.502 30.3096C93.5202 32.6696 96.3929 33.8496 100.12 33.8496C103.082 33.8496 106.102 33.1497 109.178 31.75L110.936 35.8516C109.308 36.6165 107.518 37.2269 105.564 37.6826C103.611 38.1221 101.731 38.3418 99.9248 38.3418C94.5863 38.3418 90.5091 36.7874 87.6934 33.6787C84.8776 30.5537 83.4697 26.0615 83.4697 20.2021C83.4697 16.4749 84.137 13.2604 85.4717 10.5586C86.8063 7.85677 88.7269 5.78971 91.2334 4.35742C93.7562 2.92513 96.7673 2.20898 100.267 2.20898ZM124.729 11.9014C127.936 11.9014 130.402 12.7477 132.127 14.4404C133.868 16.1169 134.739 18.5176 134.739 21.6426V38H131.126L130.442 34.9971C127.936 37.3245 125.12 38.4883 121.995 38.4883C119.424 38.4883 117.381 37.7965 115.867 36.4131C114.354 35.0296 113.597 33.1742 113.597 30.8467C113.597 28.1449 114.703 26.0371 116.917 24.5234C119.131 23.0098 122.239 22.2529 126.243 22.2529H130.027V21.5449C129.897 17.8828 128.017 16.0518 124.388 16.0518C123.281 16.0518 122.036 16.2227 120.652 16.5645C119.269 16.89 117.877 17.3376 116.478 17.9072L115.184 14.0986C116.681 13.3988 118.26 12.8617 119.92 12.4873C121.596 12.0967 123.2 11.9014 124.729 11.9014ZM126.536 25.8418C123.932 25.8418 121.906 26.2731 120.457 27.1357C119.008 27.9821 118.284 29.1702 118.284 30.7002C118.284 31.8721 118.683 32.7754 119.48 33.4102C120.278 34.0286 121.393 34.3379 122.825 34.3379C124.192 34.3379 125.527 34.0531 126.829 33.4834C128.131 32.8975 129.197 32.1162 130.027 31.1396V25.8418H126.536ZM143.406 8.84961C143.406 6.11523 144.122 3.99935 145.555 2.50195C146.987 1.00456 149.005 0.255859 151.609 0.255859C152.602 0.255859 153.562 0.353516 154.49 0.548828C155.434 0.744141 156.574 1.11035 157.908 1.64746L156.199 5.30957C154.474 4.73991 153.058 4.45508 151.951 4.45508C150.714 4.45508 149.762 4.81315 149.095 5.5293C148.444 6.24544 148.118 7.23828 148.118 8.50781V12.292H155.418V16.3447H148.118V36.3398C148.118 38.0651 147.988 39.6439 147.728 41.0762C147.483 42.5247 147.076 44.0465 146.507 45.6416H143.406V16.3447H138.914V12.292H143.406V8.84961Z" fill="#C1FF15"/>
</svg>
